<?xml version="1.0" encoding="UTF-8" standalone="no"?>
<svg
   version="1.0"
   width="1280.000000pt"
   height="1280.000000pt"
   viewBox="0 0 1280.000000 1280.000000"
   preserveAspectRatio="xMidYMid meet"
   id="svg1"
   sodipodi:docname="2445095  rose.svg"
   inkscape:version="1.3.2 (091e20e, 2023-11-25, custom)"
   xmlns:inkscape="http://www.inkscape.org/namespaces/inkscape"
   xmlns:sodipodi="http://sodipodi.sourceforge.net/DTD/sodipodi-0.dtd"
   xmlns:xlink="http://www.w3.org/1999/xlink"
   xmlns="http://www.w3.org/2000/svg"
   xmlns:svg="http://www.w3.org/2000/svg">
  <defs
     id="defs1">
    <linearGradient
       id="linearGradient8"
       inkscape:collect="always">
      <stop
         style="stop-color:#9356dc;stop-opacity:1;"
         offset="0"
         id="stop8" />
      <stop
         style="stop-color:#ff79da;stop-opacity:1;"
         offset="1"
         id="stop9" />
    </linearGradient>
    <linearGradient
       id="linearGradient5"
       inkscape:collect="always">
      <stop
         style="stop-color:#9356dc;stop-opacity:1;"
         offset="0"
         id="stop4" />
      <stop
         style="stop-color:#ff79da;stop-opacity:1;"
         offset="1"
         id="stop5" />
    </linearGradient>
    <inkscape:perspective
       sodipodi:type="inkscape:persp3d"
       inkscape:vp_x="0 : 640 : 1"
       inkscape:vp_y="0 : 1000 : 0"
       inkscape:vp_z="1280 : 640 : 1"
       inkscape:persp3d-origin="640 : 426.66667 : 1"
       id="perspective3" />
    <linearGradient
       id="linearGradient2"
       inkscape:collect="always">
      <stop
         style="stop-color:#000000;stop-opacity:1;"
         offset="0"
         id="stop2" />
      <stop
         style="stop-color:#000000;stop-opacity:0;"
         offset="1"
         id="stop3" />
    </linearGradient>
    <linearGradient
       inkscape:collect="always"
       xlink:href="#linearGradient2"
       id="linearGradient3"
       x1="6410.416"
       y1="3702.0867"
       x2="6400.6528"
       y2="9020.9521"
       gradientUnits="userSpaceOnUse" />
    <linearGradient
       inkscape:collect="always"
       xlink:href="#linearGradient5"
       id="linearGradient4"
       gradientUnits="userSpaceOnUse"
       x1="6394.2944"
       y1="3720.3501"
       x2="6416.6152"
       y2="7344.5835" />
    <linearGradient
       inkscape:collect="always"
       xlink:href="#linearGradient8"
       id="linearGradient9"
       x1="655.16083"
       y1="1004.1661"
       x2="661.12933"
       y2="415.64795"
       gradientUnits="userSpaceOnUse"
       gradientTransform="matrix(1.0196214,0,0,1.0654762,-13.912487,-23.357115)" />
  </defs>
  <sodipodi:namedview
     id="namedview1"
     pagecolor="#ffffff"
     bordercolor="#000000"
     borderopacity="0.25"
     inkscape:showpageshadow="2"
     inkscape:pageopacity="0.0"
     inkscape:pagecheckerboard="0"
     inkscape:deskcolor="#d1d1d1"
     inkscape:document-units="pt"
     showgrid="false"
     inkscape:zoom="0.69199219"
     inkscape:cx="773.13011"
     inkscape:cy="529.63025"
     inkscape:window-width="2560"
     inkscape:window-height="1377"
     inkscape:window-x="1912"
     inkscape:window-y="-8"
     inkscape:window-maximized="1"
     inkscape:current-layer="svg1" />
  <metadata
     id="metadata1">
Created by potrace 1.15, written by Peter Selinger 2001-2017
</metadata>
  <g
     transform="matrix(0.14567095,0,0,-0.15221649,-281.16663,1600.2699)"
     fill="#000000"
     stroke="none"
     id="g1"
     style="fill:url(#linearGradient3);fill-opacity:1">
    <path
       d="m 5140,9029 c -714,-52 -1333,-554 -1531,-1241 -56,-195 -64,-255 -63,-498 0,-195 3,-239 23,-330 65,-306 192,-569 383,-795 42,-49 610,-623 1262,-1275 L 6400,3705 7624,4930 c 778,779 1245,1254 1283,1305 159,214 260,432 317,686 104,470 9,962 -264,1363 -80,118 -217,268 -324,355 -485,396 -1138,504 -1724,285 -163,-61 -292,-132 -439,-242 l -72,-54 -43,35 c -185,150 -474,284 -728,337 -80,16 -341,43 -375,39 -5,-1 -57,-5 -115,-10 z m 460,-302 c 276,-65 499,-186 712,-387 l 93,-87 97,93 c 207,198 440,323 718,386 91,20 132,23 305,23 223,0 292,-10 474,-71 428,-142 773,-487 915,-914 54,-164 67,-239 73,-425 4,-143 2,-189 -15,-290 -37,-215 -111,-402 -233,-586 -55,-83 -193,-226 -1200,-1234 L 6400,4095 5289,5205 c -787,787 -1131,1138 -1182,1205 -151,198 -247,434 -282,690 -108,788 433,1516 1222,1645 138,23 418,13 553,-18 z"
       id="path1"
       style="fill:url(#linearGradient4);fill-opacity:1;fill-rule:evenodd" />
  </g>
  <path
     style="fill:#000000;fill-rule:evenodd;stroke-width:1.4451"
     d="M 800.58707,1230.9607 C 763.62856,1192.3187 702.5007,1128.4223 664.74739,1088.9686 541.61364,960.28909 462.44093,876.54223 437.88372,848.99802 401.47834,808.16451 377.8343,755.27069 369.05513,695.02231 365.74172,672.2836 365.7861,630.38524 369.1467,608.55396 388.11675,485.3201 473.28651,390.84815 591.04713,362.41772 c 13.23014,-3.1941 19.34785,-3.75243 47.7645,-4.3592 37.24519,-0.79527 61.82138,1.45072 82.98613,7.58402 51.29809,14.86561 88.86721,37.24283 130.21269,77.55835 8.81009,8.59062 16.62526,15.61932 17.36705,15.61932 0.74179,0 8.16519,-6.87997 16.49647,-15.28882 41.31103,-41.69573 81.20838,-65.14316 135.81383,-79.817 l 19.5089,-5.24253 44.0757,-0.0425 c 49.5487,-0.0478 54.203,0.55405 85.9713,11.11638 86.1227,28.63402 152.6699,95.01517 182.6357,182.18004 12.0378,35.01565 16.0643,61.43043 16.0733,105.44429 0.01,27.26989 -2.1718,45.00465 -8.8173,71.81688 -9.6125,38.78329 -29.6365,80.91647 -50.168,105.56001 -21.6625,26.00106 -65.896,72.73364 -352.55718,372.47534 -49.59795,51.8611 -90.27885,94.2713 -90.40198,94.2448 -0.12313,-0.026 -30.46266,-31.6643 -67.42117,-70.3064 z"
     id="path2"
     transform="scale(0.75)" />
  <path
     style="fill:url(#linearGradient9);fill-rule:evenodd;stroke-width:1.165"
     d="M 645.99931,1019.973 C 642.65907,1016.1488 600.21726,969.60294 551.68423,916.53778 365.70385,713.19024 315.97473,657.8891 303.45771,640.49813 c -21.41592,-29.75498 -35.97269,-66.7401 -42.84789,-108.86589 -3.04543,-18.65996 -2.77642,-62.28535 0.49702,-80.60079 8.54615,-47.81734 28.05589,-90.56139 56.28283,-123.31054 31.13445,-36.12251 66.77871,-58.92038 113.03312,-72.2954 12.09302,-3.49684 13.53915,-3.64166 41.96162,-4.20222 40.57288,-0.8002 55.58248,1.40798 83.49219,12.28325 30.37807,11.8371 53.20992,27.44898 83.31776,56.97069 7.11233,6.97388 13.68475,12.67978 14.60542,12.67978 0.92061,0 7.3984,-5.81206 14.39499,-12.91569 23.24502,-23.60051 38.49659,-35.39099 61.11185,-47.24349 14.09865,-7.389 26.09289,-12.10066 45.49696,-17.87239 l 14.1853,-4.21942 31.92815,0.007 c 22.19712,0.005 35.22498,0.53568 42.74499,1.74159 22.42032,3.59531 58.74516,19.20708 81.41019,34.98875 54.83687,38.18274 92.50679,102.45772 100.71079,171.83894 1.8089,15.29829 1.4924,58.06479 -0.5338,72.1499 -3.5228,24.48422 -11.904,51.88336 -22.9639,75.06875 -11.619,24.35796 -18.8624,34.35964 -51.38725,70.95659 -37.18379,41.83905 -317.54702,349.26876 -318.51872,349.26876 -0.16874,0 -3.03974,-3.129 -6.38001,-6.9534 z"
     id="path3" />
</svg>
