<?xml version="1.0" encoding="UTF-8" standalone="no"?>
<svg
   version="1.0"
   width="1280.000000pt"
   height="1280.000000pt"
   viewBox="0 0 1280.000000 1280.000000"
   preserveAspectRatio="xMidYMid meet"
   id="svg1"
   sodipodi:docname="heart.svg"
   inkscape:version="1.3.2 (091e20e, 2023-11-25, custom)"
   xmlns:inkscape="http://www.inkscape.org/namespaces/inkscape"
   xmlns:sodipodi="http://sodipodi.sourceforge.net/DTD/sodipodi-0.dtd"
   xmlns:xlink="http://www.w3.org/1999/xlink"
   xmlns="http://www.w3.org/2000/svg"
   xmlns:svg="http://www.w3.org/2000/svg">
  <defs
     id="defs1">
    <linearGradient
       id="linearGradient7"
       inkscape:collect="always">
      <stop
         style="stop-color:#ff79da;stop-opacity:1;"
         offset="0"
         id="stop6" />
      <stop
         style="stop-color:#9356dc;stop-opacity:1;"
         offset="1"
         id="stop7" />
    </linearGradient>
    <linearGradient
       id="linearGradient8"
       inkscape:collect="always">
      <stop
         style="stop-color:#ff79da;stop-opacity:1;"
         offset="0"
         id="stop9" />
      <stop
         style="stop-color:#9356dc;stop-opacity:1;"
         offset="1"
         id="stop8" />
    </linearGradient>
    <inkscape:perspective
       sodipodi:type="inkscape:persp3d"
       inkscape:vp_x="0 : 640 : 1"
       inkscape:vp_y="0 : 1000 : 0"
       inkscape:vp_z="1280 : 640 : 1"
       inkscape:persp3d-origin="640 : 426.66667 : 1"
       id="perspective3" />
    <linearGradient
       inkscape:collect="always"
       xlink:href="#linearGradient7"
       id="linearGradient3"
       x1="6410.416"
       y1="3702.0867"
       x2="6400.6528"
       y2="9020.9521"
       gradientUnits="userSpaceOnUse" />
    <linearGradient
       inkscape:collect="always"
       xlink:href="#linearGradient8"
       id="linearGradient9"
       x1="655.16083"
       y1="1004.1661"
       x2="661.12933"
       y2="415.64795"
       gradientUnits="userSpaceOnUse"
       gradientTransform="matrix(1.077084,0,0,1.1086309,-50.94022,-56.142083)" />
    <linearGradient
       inkscape:collect="always"
       xlink:href="#linearGradient7"
       id="linearGradient6"
       x1="3545.9224"
       y1="6372.1997"
       x2="9265.1465"
       y2="6372.1997"
       gradientUnits="userSpaceOnUse" />
  </defs>
  <sodipodi:namedview
     id="namedview1"
     pagecolor="#ffffff"
     bordercolor="#000000"
     borderopacity="0.25"
     inkscape:showpageshadow="2"
     inkscape:pageopacity="0.0"
     inkscape:pagecheckerboard="0"
     inkscape:deskcolor="#d1d1d1"
     inkscape:document-units="pt"
     showgrid="false"
     inkscape:zoom="0.69199219"
     inkscape:cx="773.13011"
     inkscape:cy="759.40163"
     inkscape:window-width="1920"
     inkscape:window-height="1017"
     inkscape:window-x="-8"
     inkscape:window-y="352"
     inkscape:window-maximized="1"
     inkscape:current-layer="svg1" />
  <metadata
     id="metadata1">
Created by potrace 1.15, written by Peter Selinger 2001-2017
</metadata>
  <g
     transform="matrix(0.14567095,0,0,-0.15221649,-281.16663,1600.2699)"
     fill="#000000"
     stroke="none"
     id="g1"
     style="fill:url(#linearGradient3);fill-opacity:1;stroke:url(#linearGradient6)">
    <path
       d="m 5140,9029 c -714,-52 -1333,-554 -1531,-1241 -56,-195 -64,-255 -63,-498 0,-195 3,-239 23,-330 65,-306 192,-569 383,-795 42,-49 610,-623 1262,-1275 L 6400,3705 7624,4930 c 778,779 1245,1254 1283,1305 159,214 260,432 317,686 104,470 9,962 -264,1363 -80,118 -217,268 -324,355 -485,396 -1138,504 -1724,285 -163,-61 -292,-132 -439,-242 l -72,-54 -43,35 c -185,150 -474,284 -728,337 -80,16 -341,43 -375,39 -5,-1 -57,-5 -115,-10 z m 460,-302 c 276,-65 499,-186 712,-387 l 93,-87 97,93 c 207,198 440,323 718,386 91,20 132,23 305,23 223,0 292,-10 474,-71 428,-142 773,-487 915,-914 54,-164 67,-239 73,-425 4,-143 2,-189 -15,-290 -37,-215 -111,-402 -233,-586 -55,-83 -193,-226 -1200,-1234 L 6400,4095 5289,5205 c -787,787 -1131,1138 -1182,1205 -151,198 -247,434 -282,690 -108,788 433,1516 1222,1645 138,23 418,13 553,-18 z"
       id="path1"
       style="fill:#000000;fill-opacity:1;fill-rule:evenodd;stroke:url(#linearGradient6)" />
  </g>
  <path
     style="display:none;fill:#000000;fill-rule:evenodd;stroke-width:1.4451"
     d="M 800.58707,1230.9607 C 763.62856,1192.3187 702.5007,1128.4223 664.74739,1088.9686 541.61364,960.28909 462.44093,876.54223 437.88372,848.99802 401.47834,808.16451 377.8343,755.27069 369.05513,695.02231 365.74172,672.2836 365.7861,630.38524 369.1467,608.55396 388.11675,485.3201 473.28651,390.84815 591.04713,362.41772 c 13.23014,-3.1941 19.34785,-3.75243 47.7645,-4.3592 37.24519,-0.79527 61.82138,1.45072 82.98613,7.58402 51.29809,14.86561 88.86721,37.24283 130.21269,77.55835 8.81009,8.59062 16.62526,15.61932 17.36705,15.61932 0.74179,0 8.16519,-6.87997 16.49647,-15.28882 41.31103,-41.69573 81.20838,-65.14316 135.81383,-79.817 l 19.5089,-5.24253 44.0757,-0.0425 c 49.5487,-0.0478 54.203,0.55405 85.9713,11.11638 86.1227,28.63402 152.6699,95.01517 182.6357,182.18004 12.0378,35.01565 16.0643,61.43043 16.0733,105.44429 0.01,27.26989 -2.1718,45.00465 -8.8173,71.81688 -9.6125,38.78329 -29.6365,80.91647 -50.168,105.56001 -21.6625,26.00106 -65.896,72.73364 -352.55718,372.47534 -49.59795,51.8611 -90.27885,94.2713 -90.40198,94.2448 -0.12313,-0.026 -30.46266,-31.6643 -67.42117,-70.3064 z"
     id="path2"
     transform="scale(0.75)" />
  <path
     style="display:none;fill:url(#linearGradient9);fill-rule:evenodd;stroke-width:1.22138"
     d="M 646.16213,1029.4458 C 642.63365,1025.4667 597.79995,977.03564 546.53175,921.82118 350.0701,710.23751 297.5384,652.69651 284.31596,634.60116 c -22.62285,-30.96015 -38,-69.44326 -45.26266,-113.27527 -3.21706,-19.41574 -2.93289,-64.80807 0.52503,-83.86535 9.02778,-49.75406 29.63704,-94.22937 59.45476,-128.30496 32.88909,-37.58557 70.54214,-61.30681 119.40331,-75.22357 12.77454,-3.63847 14.30217,-3.78916 44.32644,-4.37241 42.85945,-0.83261 58.71494,1.46501 88.19755,12.78076 32.09009,12.31653 56.20866,28.56073 88.01329,59.27815 7.51315,7.25635 14.45598,13.19335 15.42853,13.19335 0.9725,0 7.81535,-6.04747 15.20624,-13.43881 24.55504,-24.55639 40.66615,-36.82443 64.55593,-49.15699 14.89321,-7.68827 27.5634,-12.59076 48.06102,-18.59626 l 14.98474,-4.39032 33.72752,0.007 c 23.44809,0.005 37.21015,0.55737 45.15397,1.81212 23.68385,3.74093 62.05585,19.98502 85.99821,36.40589 57.92726,39.72926 97.72016,106.60755 106.38656,178.7989 1.9108,15.91793 1.5764,60.41657 -0.564,75.07218 -3.7212,25.47589 -12.5748,53.98479 -24.258,78.10924 -12.2738,25.34453 -19.9254,35.75131 -54.28326,73.83054 -39.27935,43.53365 -335.44297,363.41505 -336.46943,363.41505 -0.17825,0 -3.21105,-3.2557 -6.73957,-7.235 z"
     id="path3" />
</svg>
